<svg width="25" height="26" viewBox="0 0 25 26" fill="none" xmlns="http://www.w3.org/2000/svg">
<g clip-path="url(#clip0_2_476)">
<path fill-rule="evenodd" clip-rule="evenodd" d="M6.81882 15.031L7.34982 15.5605L8.41032 14.5L7.87932 13.9705L5.18982 11.2795C4.89732 10.987 4.89732 10.513 5.18982 10.219L12.0688 3.34149C12.3628 3.04749 12.8368 3.04749 13.1293 3.34149L20.0083 10.219C20.3008 10.513 20.3008 10.987 20.0083 11.2795L17.3188 13.969L16.7893 14.5L17.8498 15.5605L18.3793 15.0295L21.0688 12.3415C21.9478 11.4625 21.9478 10.0375 21.0688 9.15849L14.1913 2.27949C13.3123 1.40199 11.8873 1.40199 11.0083 2.27949L4.12932 9.15999C3.25182 10.039 3.25182 11.464 4.12932 12.3415L6.81882 15.0325V15.031ZM12.0688 16.219L12.5998 15.6895L13.1308 16.219L17.6308 20.719L16.5703 21.7795L13.3498 18.5605V25.75H11.8498V18.5605L8.63082 21.7795L7.57032 20.719L12.0703 16.219H12.0688Z" fill="white" stroke="white"/>
</g>
<defs>
<clipPath id="clip0_2_476">
<rect width="24" height="25.5" fill="white" transform="translate(0.600098 0.25)"/>
</clipPath>
</defs>
</svg>
