<svg width="50" height="74" viewBox="0 0 50 74" fill="none" xmlns="http://www.w3.org/2000/svg">
<path d="M24.5215 36.5593C24.5215 29.8976 29.9549 24.4969 36.6574 24.4969C43.3598 24.4969 48.7933 29.8976 48.7933 36.5593C48.7933 43.2212 43.3598 48.6217 36.6574 48.6217C29.9549 48.6217 24.5215 43.2212 24.5215 36.5593Z" fill="#1ABCFE"/>
<path d="M0.249512 60.684C0.249512 54.0223 5.68294 48.6217 12.3854 48.6217H24.5213V60.684C24.5213 67.346 19.088 72.7464 12.3854 72.7464C5.68294 72.7464 0.249512 67.346 0.249512 60.684Z" fill="#0ACF83"/>
<path d="M24.5215 0.372284V24.4969H36.6574C43.3599 24.4969 48.7933 19.0965 48.7933 12.4346C48.7933 5.77279 43.3599 0.372284 36.6574 0.372284H24.5215Z" fill="#FF7262"/>
<path d="M0.249512 12.4346C0.249512 19.0965 5.68294 24.4969 12.3854 24.4969H24.5213V0.372253H12.3854C5.68294 0.372253 0.249512 5.77276 0.249512 12.4346Z" fill="#F24E1E"/>
<path d="M0.249512 36.5593C0.249512 43.2212 5.68294 48.6217 12.3854 48.6217H24.5213V24.4969H12.3854C5.68294 24.4969 0.249512 29.8976 0.249512 36.5593Z" fill="#A259FF"/>
</svg>
