<svg width="23" height="23" viewBox="0 0 23 23" fill="none" xmlns="http://www.w3.org/2000/svg">
<path d="M11.4997 12.8737C11.135 12.8737 10.7853 12.7289 10.5275 12.471C10.2696 12.2132 10.1247 11.8634 10.1247 11.4988C10.1247 11.1341 10.2696 10.7844 10.5275 10.5265C10.7853 10.2687 11.135 10.1238 11.4997 10.1238C11.8644 10.1238 12.2141 10.2687 12.4719 10.5265C12.7298 10.7844 12.8747 11.1341 12.8747 11.4988C12.8747 11.8634 12.7298 12.2132 12.4719 12.471C12.2141 12.7289 11.8644 12.8737 11.4997 12.8737ZM11.0157 15.6182C11.1761 15.8106 11.3374 15.9976 11.4997 16.1764C11.6619 15.9976 11.8233 15.8116 11.9837 15.6182C11.6611 15.625 11.3383 15.625 11.0157 15.6182V15.6182ZM9.18702 15.5036C8.4831 15.4303 7.78383 15.3177 7.0925 15.1663C7.02375 15.4871 6.9715 15.7987 6.93667 16.0976C6.76251 17.5486 7.00542 18.4304 7.37483 18.6431C7.74423 18.8566 8.62879 18.6256 9.79933 17.7503C10.0404 17.5697 10.2833 17.3689 10.5271 17.1499C10.05 16.6266 9.60262 16.0769 9.18702 15.5036V15.5036ZM15.9069 15.1663C15.2497 15.3129 14.5475 15.4266 13.8124 15.5036C13.3968 16.0769 12.9494 16.6266 12.4722 17.1499C12.7161 17.3698 12.959 17.5697 13.2001 17.7503C14.3706 18.6256 15.2552 18.8566 15.6246 18.6431C15.994 18.4304 16.236 17.5486 16.0636 16.0976C16.0258 15.7849 15.9738 15.4742 15.9078 15.1663H15.9069ZM17.236 14.8115C17.7649 17.2305 17.4872 19.1564 16.312 19.8347C15.1369 20.513 13.3302 19.7907 11.4997 18.1233C9.66917 19.7907 7.86248 20.5121 6.68735 19.8338C5.51222 19.1555 5.23448 17.2305 5.76246 14.8106C3.40304 14.0599 1.875 12.8554 1.875 11.4988C1.875 10.1422 3.40304 8.93862 5.76246 8.18606C5.23448 5.76705 5.51222 3.84119 6.68735 3.16288C7.86248 2.48457 9.66917 3.20688 11.4997 4.87424C13.3302 3.20688 15.1369 2.48549 16.312 3.1638C17.4872 3.84211 17.7649 5.76705 17.2369 8.18697C19.5964 8.9377 21.1244 10.1422 21.1244 11.4988C21.1244 12.8554 19.5964 14.059 17.2369 14.8115H17.236ZM10.5262 5.84771C10.2931 5.63671 10.0506 5.43637 9.79933 5.24732C8.62879 4.37193 7.74423 4.14093 7.37483 4.35451C7.00542 4.56717 6.76343 5.44898 6.93576 6.90001C6.97242 7.19975 7.02375 7.51049 7.09158 7.83132C7.78321 7.67983 8.48279 7.56721 9.18702 7.49399C9.62242 6.89543 10.0716 6.34453 10.5271 5.84771H10.5262ZM13.8124 7.49399C14.5475 7.57099 15.2497 7.68557 15.9069 7.83132C15.9756 7.51049 16.0279 7.19884 16.0627 6.90001C16.2369 5.44898 15.994 4.56717 15.6246 4.35451C15.2552 4.14093 14.3706 4.37193 13.2001 5.24732C12.9485 5.43635 12.7057 5.63669 12.4722 5.84771C12.9278 6.34453 13.377 6.89543 13.8124 7.49399V7.49399ZM11.9837 7.37941C11.8233 7.18692 11.6619 6.99993 11.4997 6.82118C11.3374 6.99993 11.1761 7.186 11.0157 7.37941C11.3383 7.37257 11.6611 7.37257 11.9837 7.37941V7.37941ZM8.17413 13.9774C8.0069 13.7016 7.84554 13.4222 7.69015 13.1396C7.60307 13.3751 7.5224 13.6071 7.44907 13.8371C7.68465 13.8885 7.92664 13.9352 8.17322 13.9774H8.17413ZM9.94508 14.1919C10.9801 14.2687 12.0193 14.2687 13.0543 14.1919C13.6384 13.3338 14.158 12.4337 14.6089 11.4988C14.158 10.5639 13.6384 9.66372 13.0543 8.8057C12.0193 8.72883 10.9801 8.72883 9.94508 8.8057C9.36099 9.66372 8.84136 10.5639 8.39046 11.4988C8.84136 12.4337 9.36099 13.3338 9.94508 14.1919V14.1919ZM15.3092 9.858C15.3963 9.62243 15.477 9.39052 15.5503 9.16044C15.31 9.1083 15.0686 9.06153 14.8262 9.0202C14.9931 9.29602 15.1542 9.57535 15.3092 9.858ZM6.11903 9.5161C5.80738 9.61693 5.51222 9.72692 5.23539 9.84609C3.89252 10.4217 3.24996 11.0725 3.24996 11.4988C3.24996 11.925 3.8916 12.5758 5.23539 13.1515C5.51222 13.2706 5.80738 13.3806 6.11903 13.4815C6.32253 12.8398 6.5746 12.1743 6.87526 11.4988C6.58636 10.8525 6.33389 10.1906 6.11903 9.5161V9.5161ZM7.44816 9.16044C7.5224 9.3896 7.60307 9.62243 7.69015 9.85709C7.84555 9.57473 8.00691 9.29571 8.17413 9.0202C7.92664 9.06236 7.68465 9.10911 7.44907 9.16044H7.44816ZM16.8804 13.4815C17.192 13.3806 17.4872 13.2706 17.764 13.1515C19.1069 12.5758 19.7494 11.925 19.7494 11.4988C19.7494 11.0725 19.1078 10.4217 17.764 9.84609C17.4746 9.7228 17.1797 9.61269 16.8804 9.5161C16.6769 10.1577 16.4248 10.8232 16.1241 11.4988C16.4248 12.1743 16.6769 12.8389 16.8804 13.4815V13.4815ZM15.5512 13.8371C15.477 13.608 15.3963 13.3751 15.3092 13.1405C15.1538 13.4228 14.9925 13.7019 14.8253 13.9774C15.0727 13.9352 15.3147 13.8885 15.5503 13.8371H15.5512Z" fill="white"/>
</svg>
