<svg width="460" height="117" viewBox="0 0 460 117" fill="none" xmlns="http://www.w3.org/2000/svg">
<g filter="url(#filter0_d_2_559)">
<path d="M86.7267 0V107.168H77.0597L12.7835 17.4253H11.9337V107.168H2V0H11.6151L76.1032 89.8472H76.953V0H86.7267ZM146.647 108.846C139.033 108.846 132.446 107.093 126.886 103.587C121.273 100.022 116.806 94.9587 114.004 88.9874C110.977 82.7605 109.463 75.5829 109.463 67.4547C109.463 59.3604 110.977 52.1656 114.004 45.8701C116.755 39.8976 121.108 34.7774 126.594 31.0612C132.1 27.4442 138.596 25.5726 145.213 25.6977C149.594 25.6879 153.938 26.4942 158.015 28.0742C162.186 29.7026 165.96 32.1813 169.091 35.3476C172.531 38.8647 175.182 43.0539 176.875 47.6444C178.787 52.5805 179.744 58.4152 179.744 65.1485V69.7537H125.039V61.5381H170.074C170.15 56.7091 169.067 51.9307 166.912 47.5926C164.938 43.6063 161.91 40.2172 158.148 37.7808C154.136 35.342 149.497 34.0898 144.783 34.1733C140.069 34.2567 135.479 35.6723 131.559 38.2516C127.599 41.0063 124.425 44.7185 122.342 49.0311C120.105 53.6 118.951 58.6103 118.969 63.683V68.6021C118.969 74.9861 120.093 80.559 122.342 85.3209C124.384 89.8453 127.714 93.6895 131.928 96.3879C136.072 99.0041 140.977 100.312 146.643 100.312C150.119 100.381 153.575 99.7765 156.815 98.5329C159.581 97.448 162.094 95.8186 164.199 93.7445C166.127 91.8437 167.669 89.5968 168.74 87.125L177.717 90.0027C176.393 93.5176 174.319 96.7117 171.634 99.3693C168.642 102.346 165.062 104.688 161.116 106.25C156.516 108.053 151.597 108.935 146.647 108.846H146.647ZM204.23 26.7919L225.265 61.0666L246.301 26.7919H257.297L231.055 66.9789L257.297 107.166H246.301L225.265 73.9918L204.23 107.168H193.287L219.209 66.9811L193.287 26.794L204.23 26.7919ZM309.302 26.7919V34.9031H270.365V26.7919H309.302ZM282.53 7.53543H292.038V86.1842C292.038 89.5332 292.623 92.1584 293.791 94.0598C294.835 95.8515 296.437 97.2644 298.36 98.0891C300.259 98.8784 302.301 99.2789 304.362 99.2663C305.429 99.2796 306.496 99.2007 307.549 99.0306C308.434 98.8735 309.214 98.7078 309.887 98.5336L311.905 106.959C310.797 107.361 309.661 107.685 308.505 107.926C306.862 108.251 305.187 108.4 303.512 108.371C300.045 108.372 296.622 107.603 293.499 106.121C290.304 104.629 287.579 102.315 285.611 99.4226C283.556 96.4575 282.529 92.777 282.529 88.381L282.53 7.53543ZM405.235 0H415.169V70.9572C415.284 77.8189 413.484 84.5799 409.963 90.5019C406.491 96.2418 401.483 100.93 395.488 104.055C389.308 107.352 382.128 109 373.948 109C365.802 109 358.631 107.343 352.434 104.03C346.435 100.901 341.419 96.2141 337.932 90.477C334.409 84.5655 332.608 77.8123 332.726 70.9586V0H342.66V70.277C342.564 75.5929 343.902 80.8386 346.537 85.4785C349.108 89.9128 352.89 93.5478 357.453 95.9704C362.146 98.517 367.644 99.7903 373.948 99.7903C380.251 99.7903 385.758 98.517 390.468 95.9704C395.04 93.5579 398.825 89.9202 401.387 85.4778C404.005 80.8325 405.334 75.5889 405.238 70.2763L405.235 0ZM454 0V107.168H444.069V0H454Z" fill="white"/>
</g>
<defs>
<filter id="filter0_d_2_559" x="0" y="0" width="460" height="117" filterUnits="userSpaceOnUse" color-interpolation-filters="sRGB">
<feFlood flood-opacity="0" result="BackgroundImageFix"/>
<feColorMatrix in="SourceAlpha" type="matrix" values="0 0 0 0 0 0 0 0 0 0 0 0 0 0 0 0 0 0 127 0" result="hardAlpha"/>
<feOffset dx="2" dy="4"/>
<feGaussianBlur stdDeviation="2"/>
<feComposite in2="hardAlpha" operator="out"/>
<feColorMatrix type="matrix" values="0 0 0 0 0 0 0 0 0 0 0 0 0 0 0 0 0 0 0.3 0"/>
<feBlend mode="normal" in2="BackgroundImageFix" result="effect1_dropShadow_2_559"/>
<feBlend mode="normal" in="SourceGraphic" in2="effect1_dropShadow_2_559" result="shape"/>
</filter>
</defs>
</svg>
