<svg width="23" height="23" viewBox="0 0 23 23" fill="none" xmlns="http://www.w3.org/2000/svg">
<path d="M11.4992 12.8737C11.1345 12.8737 10.7848 12.7289 10.527 12.471C10.2691 12.2132 10.1243 11.8634 10.1243 11.4988C10.1243 11.1341 10.2691 10.7844 10.527 10.5265C10.7848 10.2687 11.1345 10.1238 11.4992 10.1238C11.8639 10.1238 12.2136 10.2687 12.4714 10.5265C12.7293 10.7844 12.8742 11.1341 12.8742 11.4988C12.8742 11.8634 12.7293 12.2132 12.4714 12.471C12.2136 12.7289 11.8639 12.8737 11.4992 12.8737ZM11.0152 15.6182C11.1756 15.8106 11.337 15.9976 11.4992 16.1764C11.6615 15.9976 11.8228 15.8116 11.9832 15.6182C11.6606 15.625 11.3378 15.625 11.0152 15.6182V15.6182ZM9.18653 15.5036C8.48261 15.4303 7.78334 15.3177 7.09201 15.1663C7.02327 15.4871 6.97102 15.7987 6.93618 16.0976C6.76202 17.5486 7.00493 18.4304 7.37434 18.6431C7.74374 18.8566 8.6283 18.6256 9.79884 17.7503C10.0399 17.5697 10.2828 17.3689 10.5267 17.1499C10.0495 16.6266 9.60213 16.0769 9.18653 15.5036V15.5036ZM15.9064 15.1663C15.2492 15.3129 14.547 15.4266 13.8119 15.5036C13.3963 16.0769 12.9489 16.6266 12.4718 17.1499C12.7156 17.3698 12.9585 17.5697 13.1996 17.7503C14.3701 18.6256 15.2547 18.8566 15.6241 18.6431C15.9935 18.4304 16.2355 17.5486 16.0631 16.0976C16.0253 15.7849 15.9733 15.4742 15.9073 15.1663H15.9064ZM17.2355 14.8115C17.7644 17.2305 17.4867 19.1564 16.3116 19.8347C15.1364 20.513 13.3297 19.7907 11.4992 18.1233C9.66868 19.7907 7.86199 20.5121 6.68686 19.8338C5.51173 19.1555 5.23399 17.2305 5.76197 14.8106C3.40255 14.0599 1.87451 12.8554 1.87451 11.4988C1.87451 10.1422 3.40255 8.93862 5.76197 8.18606C5.23399 5.76705 5.51173 3.84119 6.68686 3.16288C7.86199 2.48457 9.66868 3.20688 11.4992 4.87424C13.3297 3.20688 15.1364 2.48549 16.3116 3.1638C17.4867 3.84211 17.7644 5.76705 17.2364 8.18697C19.5959 8.9377 21.1239 10.1422 21.1239 11.4988C21.1239 12.8554 19.5959 14.059 17.2364 14.8115H17.2355ZM10.5257 5.84771C10.2926 5.63671 10.0501 5.43637 9.79884 5.24732C8.6283 4.37193 7.74374 4.14093 7.37434 4.35451C7.00493 4.56717 6.76294 5.44898 6.93527 6.90001C6.97193 7.19975 7.02327 7.51049 7.0911 7.83132C7.78273 7.67983 8.4823 7.56721 9.18653 7.49399C9.62193 6.89543 10.0711 6.34453 10.5267 5.84771H10.5257ZM13.8119 7.49399C14.547 7.57099 15.2492 7.68557 15.9064 7.83132C15.9751 7.51049 16.0274 7.19884 16.0622 6.90001C16.2364 5.44898 15.9935 4.56717 15.6241 4.35451C15.2547 4.14093 14.3701 4.37193 13.1996 5.24732C12.948 5.43635 12.7052 5.63669 12.4718 5.84771C12.9273 6.34453 13.3765 6.89543 13.8119 7.49399V7.49399ZM11.9832 7.37941C11.8228 7.18692 11.6615 6.99993 11.4992 6.82118C11.337 6.99993 11.1756 7.186 11.0152 7.37941C11.3378 7.37257 11.6606 7.37257 11.9832 7.37941V7.37941ZM8.17365 13.9774C8.00641 13.7016 7.84505 13.4222 7.68966 13.1396C7.60258 13.3751 7.52192 13.6071 7.44858 13.8371C7.68416 13.8885 7.92615 13.9352 8.17273 13.9774H8.17365ZM9.94459 14.1919C10.9796 14.2687 12.0188 14.2687 13.0538 14.1919C13.6379 13.3338 14.1575 12.4337 14.6084 11.4988C14.1575 10.5639 13.6379 9.66372 13.0538 8.8057C12.0188 8.72883 10.9796 8.72883 9.94459 8.8057C9.3605 9.66372 8.84087 10.5639 8.38997 11.4988C8.84087 12.4337 9.3605 13.3338 9.94459 14.1919V14.1919ZM15.3088 9.858C15.3958 9.62243 15.4765 9.39052 15.5498 9.16044C15.3095 9.1083 15.0681 9.06153 14.8257 9.0202C14.9926 9.29602 15.1537 9.57535 15.3088 9.858ZM6.11854 9.5161C5.80689 9.61693 5.51173 9.72692 5.23491 9.84609C3.89203 10.4217 3.24947 11.0725 3.24947 11.4988C3.24947 11.925 3.89111 12.5758 5.23491 13.1515C5.51173 13.2706 5.80689 13.3806 6.11854 13.4815C6.32204 12.8398 6.57411 12.1743 6.87477 11.4988C6.58587 10.8525 6.3334 10.1906 6.11854 9.5161V9.5161ZM7.44767 9.16044C7.52192 9.3896 7.60258 9.62243 7.68966 9.85709C7.84506 9.57473 8.00642 9.29571 8.17365 9.0202C7.92615 9.06236 7.68416 9.10911 7.44858 9.16044H7.44767ZM16.8799 13.4815C17.1915 13.3806 17.4867 13.2706 17.7635 13.1515C19.1064 12.5758 19.7489 11.925 19.7489 11.4988C19.7489 11.0725 19.1073 10.4217 17.7635 9.84609C17.4741 9.7228 17.1792 9.61269 16.8799 9.5161C16.6764 10.1577 16.4243 10.8232 16.1236 11.4988C16.4243 12.1743 16.6764 12.8389 16.8799 13.4815V13.4815ZM15.5507 13.8371C15.4765 13.608 15.3958 13.3751 15.3088 13.1405C15.1534 13.4228 14.992 13.7019 14.8248 13.9774C15.0723 13.9352 15.3143 13.8885 15.5498 13.8371H15.5507Z" fill="white"/>
</svg>
