<svg width="16" height="16" viewBox="0 0 16 16" fill="none" xmlns="http://www.w3.org/2000/svg">
<path fill-rule="evenodd" clip-rule="evenodd" d="M0.666666 0H6C6.36819 0 6.66666 0.298477 6.66666 0.666666V6C6.66666 6.36819 6.36819 6.66666 6 6.66666H0.666666C0.298477 6.66666 0 6.36819 0 6V0.666666C0 0.298477 0.298477 0 0.666666 0ZM10 0H15.3333C15.7015 0 16 0.298477 16 0.666666V6C16 6.36819 15.7015 6.66666 15.3333 6.66666H10C9.63183 6.66666 9.33335 6.36819 9.33335 6V0.666666C9.33335 0.298477 9.63183 0 10 0ZM6 9.33335H0.666666C0.298477 9.33335 0 9.63183 0 10V15.3333C0 15.7015 0.298477 16 0.666666 16H6C6.36819 16 6.66666 15.7015 6.66666 15.3333V10C6.66666 9.63183 6.36819 9.33335 6 9.33335ZM10 9.33335H15.3333C15.7015 9.33335 16 9.63183 16 10V15.3333C16 15.7015 15.7015 16 15.3333 16H10C9.63183 16 9.33335 15.7015 9.33335 15.3333V10C9.33335 9.63183 9.63183 9.33335 10 9.33335Z" fill="black"/>
</svg>
